<svg xmlns="http://www.w3.org/2000/svg" width="35" height="35" fill="none" viewBox="0 0 35 35"><rect width="34" height="34" x=".5" y=".5" stroke="#3D3D3D" rx="17"/><g clip-path="url(#clip0_9916_1792)"><path stroke="#D9D9D9" stroke-linecap="round" stroke-linejoin="round" stroke-width="1.25" d="M10.8333 13.3335H24.1666"/><path stroke="#D9D9D9" stroke-linecap="round" stroke-linejoin="round" stroke-width="1.25" d="M15.8333 16.6665V21.6665"/><path stroke="#D9D9D9" stroke-linecap="round" stroke-linejoin="round" stroke-width="1.25" d="M19.1667 16.6665V21.6665"/><path stroke="#D9D9D9" stroke-linecap="round" stroke-linejoin="round" stroke-width="1.25" d="M11.6667 13.3335L12.5001 23.3335C12.5001 23.7755 12.6757 24.1994 12.9882 24.512C13.3008 24.8246 13.7247 25.0002 14.1667 25.0002H20.8334C21.2754 25.0002 21.6994 24.8246 22.0119 24.512C22.3245 24.1994 22.5001 23.7755 22.5001 23.3335L23.3334 13.3335"/><path stroke="#D9D9D9" stroke-linecap="round" stroke-linejoin="round" stroke-width="1.25" d="M15 13.3333V10.8333C15 10.6123 15.0878 10.4004 15.2441 10.2441C15.4004 10.0878 15.6123 10 15.8333 10H19.1667C19.3877 10 19.5996 10.0878 19.7559 10.2441C19.9122 10.4004 20 10.6123 20 10.8333V13.3333"/></g><defs><clipPath id="clip0_9916_1792"><rect width="20" height="20" fill="#fff" transform="translate(7.5 7.5)"/></clipPath></defs></svg>