<svg xmlns="http://www.w3.org/2000/svg" width="16" height="16" fill="none" viewBox="0 0 16 16"><mask id="path-1-inside-1" fill="#fff"><rect width="4" height="4" rx="1"/></mask><rect width="4" height="4" stroke="#3D3D3D" stroke-width="3.6" mask="url(#path-1-inside-1)" rx="1"/><mask id="path-2-inside-2" fill="#fff"><rect width="4" height="4" x="6" rx="1"/></mask><rect width="4" height="4" x="6" stroke="#3D3D3D" stroke-width="3.6" mask="url(#path-2-inside-2)" rx="1"/><mask id="path-3-inside-3" fill="#fff"><rect width="4" height="4" x="12" rx="1"/></mask><rect width="4" height="4" x="12" stroke="#3D3D3D" stroke-width="3.6" mask="url(#path-3-inside-3)" rx="1"/><mask id="path-4-inside-4" fill="#fff"><rect width="4" height="4" x="12" y="6" rx="1"/></mask><rect width="4" height="4" x="12" y="6" stroke="#3D3D3D" stroke-width="3.6" mask="url(#path-4-inside-4)" rx="1"/><mask id="path-5-inside-5" fill="#fff"><rect width="4" height="4" x="6" y="6" rx="1"/></mask><rect width="4" height="4" x="6" y="6" stroke="#3D3D3D" stroke-width="3.6" mask="url(#path-5-inside-5)" rx="1"/><mask id="path-6-inside-6" fill="#fff"><rect width="4" height="4" y="6" rx="1"/></mask><rect width="4" height="4" y="6" stroke="#3D3D3D" stroke-width="3.6" mask="url(#path-6-inside-6)" rx="1"/><mask id="path-7-inside-7" fill="#fff"><rect width="4" height="4" y="12" rx="1"/></mask><rect width="4" height="4" y="12" stroke="#3D3D3D" stroke-width="3.6" mask="url(#path-7-inside-7)" rx="1"/><mask id="path-8-inside-8" fill="#fff"><rect width="4" height="4" x="6" y="12" rx="1"/></mask><rect width="4" height="4" x="6" y="12" stroke="#3D3D3D" stroke-width="3.6" mask="url(#path-8-inside-8)" rx="1"/><mask id="path-9-inside-9" fill="#fff"><rect width="4" height="4" x="6" y="12" rx="1"/></mask><rect width="4" height="4" x="6" y="12" stroke="#3D3D3D" stroke-width="3.6" mask="url(#path-9-inside-9)" rx="1"/><mask id="path-10-inside-10" fill="#fff"><rect width="4" height="4" x="12" y="12" rx="1"/></mask><rect width="4" height="4" x="12" y="12" stroke="#3D3D3D" stroke-width="3.6" mask="url(#path-10-inside-10)" rx="1"/><mask id="path-11-inside-11" fill="#fff"><rect width="4" height="4" x="6" y="12" rx="1"/></mask><rect width="4" height="4" x="6" y="12" stroke="#3D3D3D" stroke-width="3.6" mask="url(#path-11-inside-11)" rx="1"/></svg>